<svg width="32" height="32" viewBox="0 0 32 32" fill="none" xmlns="http://www.w3.org/2000/svg">
<circle cx="15.5" cy="16.5" r="15.5" fill="url(#paint0_radial_101_7)"/>
<circle cx="15.5" cy="16.5" r="15.5" fill="url(#paint1_radial_101_7)"/>
<rect x="0.5" y="1" width="30" height="31" rx="15" fill="url(#paint2_radial_101_7)"/>
<path d="M21.8 11.275C21.8 12.062 21.1956 12.7 20.45 12.7C19.7044 12.7 19.1 12.062 19.1 11.275C19.1 10.488 19.7044 9.85 20.45 9.85C21.1956 9.85 21.8 10.488 21.8 11.275Z" fill="white"/>
<path fill-rule="evenodd" clip-rule="evenodd" d="M15.5 21.25C17.9853 21.25 20 19.1234 20 16.5C20 13.8766 17.9853 11.75 15.5 11.75C13.0147 11.75 11 13.8766 11 16.5C11 19.1234 13.0147 21.25 15.5 21.25ZM15.5 19.35C16.9912 19.35 18.2 18.074 18.2 16.5C18.2 14.926 16.9912 13.65 15.5 13.65C14.0088 13.65 12.8 14.926 12.8 16.5C12.8 18.074 14.0088 19.35 15.5 19.35Z" fill="white"/>
<path fill-rule="evenodd" clip-rule="evenodd" d="M6.5 16.12C6.5 12.9277 6.5 11.3316 7.08856 10.1123C7.60628 9.03973 8.43238 8.16774 9.44845 7.62126C10.6036 7 12.1157 7 15.14 7H15.86C18.8843 7 20.3964 7 21.5515 7.62126C22.5676 8.16774 23.3937 9.03973 23.9114 10.1123C24.5 11.3316 24.5 12.9277 24.5 16.12V16.88C24.5 20.0723 24.5 21.6684 23.9114 22.8877C23.3937 23.9603 22.5676 24.8323 21.5515 25.3787C20.3964 26 18.8843 26 15.86 26H15.14C12.1157 26 10.6036 26 9.44845 25.3787C8.43238 24.8323 7.60628 23.9603 7.08856 22.8877C6.5 21.6684 6.5 20.0723 6.5 16.88V16.12ZM15.14 8.9H15.86C17.4018 8.9 18.45 8.90148 19.2601 8.97135C20.0493 9.03941 20.4528 9.16276 20.7344 9.31418C21.4117 9.67849 21.9625 10.2598 22.3076 10.9748C22.4511 11.272 22.5679 11.698 22.6324 12.531C22.6986 13.3861 22.7 14.4925 22.7 16.12V16.88C22.7 18.5075 22.6986 19.6139 22.6324 20.469C22.5679 21.302 22.4511 21.728 22.3076 22.0252C21.9625 22.7402 21.4117 23.3215 20.7344 23.6858C20.4528 23.8372 20.0493 23.9606 19.2601 24.0287C18.45 24.0985 17.4018 24.1 15.86 24.1H15.14C13.5982 24.1 12.55 24.0985 11.7399 24.0287C10.9507 23.9606 10.5472 23.8372 10.2656 23.6858C9.58825 23.3215 9.03752 22.7402 8.69238 22.0252C8.54894 21.728 8.43207 21.302 8.36759 20.469C8.3014 19.6139 8.3 18.5075 8.3 16.88V16.12C8.3 14.4925 8.3014 13.3861 8.36759 12.531C8.43207 11.698 8.54894 11.272 8.69238 10.9748C9.03752 10.2598 9.58825 9.67849 10.2656 9.31418C10.5472 9.16276 10.9507 9.03941 11.7399 8.97135C12.55 8.90148 13.5982 8.9 15.14 8.9Z" fill="white"/>
<defs>
<radialGradient id="paint0_radial_101_7" cx="0" cy="0" r="1" gradientUnits="userSpaceOnUse" gradientTransform="translate(11.0714 24.25) rotate(-55.3758) scale(28.2538)">
<stop stop-color="#B13589"/>
<stop offset="0.79309" stop-color="#C62F94"/>
<stop offset="1" stop-color="#8A3AC8"/>
</radialGradient>
<radialGradient id="paint1_radial_101_7" cx="0" cy="0" r="1" gradientUnits="userSpaceOnUse" gradientTransform="translate(9.96429 33.1071) rotate(-65.1363) scale(25.0151)">
<stop stop-color="#E0E8B7"/>
<stop offset="0.444662" stop-color="#FB8A2E"/>
<stop offset="0.71474" stop-color="#E2425C"/>
<stop offset="1" stop-color="#E2425C" stop-opacity="0"/>
</radialGradient>
<radialGradient id="paint2_radial_101_7" cx="0" cy="0" r="1" gradientTransform="matrix(41.25 -6.08929 1.26042 9.11705 -1.10714 2.10714)" gradientUnits="userSpaceOnUse">
<stop offset="0.156701" stop-color="#406ADC"/>
<stop offset="0.467799" stop-color="#6A45BE"/>
<stop offset="1" stop-color="#6A45BE" stop-opacity="0"/>
</radialGradient>
</defs>
</svg>
