<svg display="none" xmlns="https://www.w3.org/2000/svg" >

<symbol id="label" width="203" height="203" viewBox="0 0 203 203" fill="none" xmlns="http://www.w3.org/2000/svg">
<circle cx="101.5" cy="101.5" r="101.5" fill="white"/>
<circle cx="101.218" cy="101.218" r="87.1208" fill="#69C3FA"/>
<path d="M79.9601 122.212C78.2619 120.642 76.3064 123.305 77.2698 124.961C79.0427 127.276 81.6784 124.062 79.9601 122.212Z" fill="white"/>
<path d="M69.1649 101.93C65.4767 101.999 65.9296 108.051 69.6696 106.935C72.1572 106.108 72.3139 101.667 69.1649 101.93Z" fill="white"/>
<path d="M59.0301 118.533C56.4491 117.082 55.5806 120.792 57.9517 121.708C60.3329 123.053 61.0935 119.441 59.0301 118.533Z" fill="white"/>
<path d="M68.7619 60.5923C69.5441 62.5895 72.7478 61.8202 71.1229 59.6461C70.4428 58.2499 68.2917 59.1055 68.7619 60.5923Z" fill="white"/>
<path d="M88.2129 65.0229C88.2188 65.0269 88.2247 65.0308 88.2306 65.0347C88.2704 65.0524 88.2793 65.0569 88.2129 65.0229Z" fill="white"/>
<path d="M86.7845 69.2357C87.9708 70.7426 90.4728 68.6806 89.646 67.142C88.6351 65.3749 85.9074 67.9013 86.7845 69.2357Z" fill="white"/>
<path d="M125.857 74.07C128.748 75.2519 129.404 70.2135 126.524 69.8037C123.123 68.6677 122.689 73.5825 125.857 74.07Z" fill="white"/>
<path d="M139.122 64.8016C138.542 62.8187 135.333 64.596 136.096 66.1748C136.983 67.3927 139.632 66.4034 139.122 64.8016Z" fill="white"/>
<path d="M140.59 119.945C140.256 118.612 137.405 118.517 137.766 120.217C138.255 121.836 141.04 122.034 140.59 119.945Z" fill="white"/>
<path d="M85.7027 139.083C85.3677 137.75 82.5163 137.655 82.8772 139.355C83.3661 140.974 86.1514 141.171 85.7027 139.083Z" fill="white"/>
<path d="M153.268 119.602C152.934 118.269 150.081 118.174 150.444 119.874C150.933 121.493 153.718 121.69 153.268 119.602Z" fill="white"/>
<path d="M105.364 145.777C105.029 144.443 102.177 144.348 102.54 146.048C103.028 147.667 105.812 147.865 105.364 145.777Z" fill="white"/>
<path d="M49.5848 112.438C47.0555 111.577 45.097 109.426 44.483 106.834C44.0632 105.062 43.9855 103.28 43.8892 101.369C43.7828 99.248 43.8964 97.1271 43.8302 95.0062C43.6749 90.0871 43.58 85.168 43.5124 80.2474C43.4564 76.2371 43.4132 72.2253 43.4247 68.2135C43.4276 67.1581 43.3931 66.0868 43.4751 65.0328C43.6059 63.3231 43.8691 61.6163 44.5247 60.0389C45.1833 58.4615 46.2014 56.9503 47.4825 55.8345C48.2044 55.2435 48.9923 54.7503 49.8795 54.4541C51.2269 53.9939 54.0423 54.0601 55.4543 54.4541C56.0784 54.6194 56.7355 54.815 57.2949 55.1443C57.8859 55.5052 58.4438 55.9984 58.8378 56.5894C59.6602 57.7397 60.4813 59.0856 60.5791 60.4991C60.6783 61.5171 60.9731 63.7833 60.1851 64.4088C59.6919 64.8028 57.8528 64.7035 57.2287 64.6705C56.8017 64.6705 56.3746 64.6374 56.0137 64.4418C55.8167 64.3096 55.6528 64.0809 55.5536 63.8839C54.8993 62.5884 55.5665 60.6371 54.2997 59.6234C53.7734 59.2021 53.0257 59.1647 52.3671 59.3114C48.63 60.141 49.0786 64.5914 48.988 67.5362C48.8917 70.668 48.9391 73.7998 48.896 76.933C48.8054 83.7229 48.6659 90.5156 48.6645 97.3068C48.6645 99.1776 48.7838 101.068 48.8888 102.938C48.9866 104.12 49.0916 105.178 49.7487 106.163C50.1096 106.722 50.6359 107.216 51.2599 107.444C51.4569 107.51 52.3312 107.756 52.7511 107.762C53.1709 107.768 53.8597 107.576 53.9977 107.499C54.5384 107.2 55.1696 106.484 55.2904 106.032C55.5205 105.31 55.4874 104.554 55.6844 103.832C55.7506 103.569 55.9475 103.306 56.1776 103.175C56.3746 103.076 57.1957 102.846 57.4257 102.813C58.0498 102.748 58.6738 102.715 59.2979 102.78C59.9881 102.846 60.5129 103.273 60.7099 103.996C60.8091 104.39 60.9084 106 60.8422 106.426C60.5474 108.298 59.758 110.27 58.2798 111.453C57.6558 112.011 56.8347 112.372 56.0137 112.569C54.3371 113.029 51.2269 112.997 49.5848 112.438Z" fill="white"/>
<path fill-rule="evenodd" clip-rule="evenodd" d="M86.6222 103.219C86.3921 103.186 86.1621 103.087 86.0298 102.923C85.8658 102.726 85.7997 102.463 85.7997 102.233C85.7681 101.971 85.735 100.394 85.735 100.131C85.7019 98.4887 85.7997 96.8466 85.932 95.203C86.0628 93.6271 86.2282 92.0511 86.556 90.5068C86.8853 88.9955 87.4432 87.5504 88.0673 86.17C88.8883 84.4302 90.0056 82.6874 91.4838 81.4724C92.5018 80.6182 93.7499 79.9942 95.0311 79.7972C95.6883 79.6994 96.3785 79.6994 97.0341 79.8303C98.5785 80.1265 100.156 81.0467 101.142 82.2949C102.521 83.9686 103.112 86.2362 103.342 88.3715C103.506 90.1128 103.539 91.8196 103.605 93.5293C103.638 94.4165 103.703 99.1789 103.801 100.033C103.933 100.854 104.064 101.741 103.835 102.529C103.605 103.219 102.357 103.219 101.634 103.186C101.371 103.186 99.8942 103.12 99.631 103.087C99.3348 103.087 98.9725 103.022 98.7755 102.792C98.3168 102.266 98.4476 100.394 98.5138 99.7037C98.5138 99.6721 98.5138 99.6721 98.5138 99.639C98.4476 98.6857 98.4476 97.7007 98.4145 96.7473C97.3304 96.8135 92.1078 96.8135 91.0567 97.1428C90.9906 98.0616 90.9575 98.9488 90.9906 99.8691C90.9906 99.9668 91.0237 100.033 91.0567 100.131C91.0567 100.394 91.1229 101.774 91.0898 102.037C91.0898 102.365 91.0237 102.792 90.7936 103.022C90.5304 103.252 90.1365 103.252 89.7755 103.286C89.2823 103.35 87.114 103.35 86.6222 103.219ZM91.6808 91.7549C92.4688 91.6888 97.4626 91.591 98.2823 91.4918C98.2175 89.9474 98.1514 88.3384 97.6927 86.8602C97.5604 86.4001 97.3303 85.8753 96.9694 85.5129C96.7063 85.2181 96.2792 84.9219 95.8522 84.9881C94.8672 85.1851 94.1439 86.17 93.586 87.0242C92.6658 88.4362 92.0417 90.0797 91.6808 91.7549Z" fill="white"/>
<path d="M120.388 112.302C119.83 112.302 119.206 112.333 118.712 112.07C118.482 111.939 118.351 111.775 118.285 111.545C118.154 111.151 118.252 109.443 118.252 109.082C118.121 103.957 118.221 89.6861 118.318 84.5614C118.318 84.1674 118.318 82.0651 118.285 81.6712C118.252 81.3749 118.252 80.2261 118.383 79.9629C118.449 79.6998 118.712 79.5358 118.942 79.4381C119.6 79.2396 121.998 79.2727 122.688 79.4381C122.917 79.4697 123.18 79.602 123.344 79.7659C123.607 80.1268 123.64 80.62 123.64 81.0471C123.673 82.0982 123.673 83.1163 123.575 84.1343C123.509 84.9568 123.475 90.9874 123.475 91.8085C126.3 91.7423 129.094 91.9408 131.885 91.8085C131.885 89.016 131.918 84.8576 131.688 82.0651C131.655 81.3749 131.458 80.6862 131.655 80.0291C131.721 79.8321 131.885 79.6351 132.082 79.5359C132.936 79.0757 135.399 79.1088 136.287 79.4381C137.076 79.6998 137.01 81.1449 136.977 81.9659C136.977 82.4591 137.141 85.3824 137.141 85.8756C137.207 90.1132 137.141 103.497 137.108 107.768C137.108 108.392 137.141 110.987 136.911 111.578C136.813 111.775 136.682 111.939 136.484 112.039C135.86 112.366 133.527 112.302 132.838 112.236C132.478 112.202 132.016 112.103 131.819 111.775C131.59 111.381 131.787 109.837 131.819 109.377C131.853 108.819 131.853 97.6565 131.885 97.0655C129.06 97.1963 126.234 96.9993 123.443 97.0655C123.443 97.6565 123.475 108.819 123.509 109.41C123.575 110.33 123.64 111.908 122.753 112.202C122.392 112.333 120.75 112.302 120.388 112.302Z" fill="white"/>
<path fill-rule="evenodd" clip-rule="evenodd" d="M147.464 112.616C146.149 112.156 144.935 111.269 144.013 110.185C142.831 108.839 142.076 107.164 141.649 105.422C141.403 104.439 141.434 103.343 141.391 102.338C141.31 100.424 141.277 98.5059 141.255 96.5892C141.202 91.9519 141.224 87.3117 141.333 82.6745C141.392 80.1567 141.278 77.6001 141.82 75.124C142.355 72.6853 143.674 70.3702 145.525 68.6879C146.741 67.6022 148.318 66.8142 149.894 66.5856C155.117 65.8623 159.027 70.56 159.553 75.7825C159.886 79.0495 159.662 82.4487 159.628 85.7257C159.576 90.6391 159.484 95.5582 159.215 100.464C158.991 104.534 158.434 108.356 155.052 111.105C153.935 112.025 152.589 112.681 151.176 112.944C149.961 113.142 148.646 113.043 147.464 112.616ZM150.087 107.74C151.375 107.619 152.461 106.386 152.836 104.974C153.749 101.54 153.752 97.7309 153.965 94.1922C154.205 90.2048 154.349 86.2117 154.412 82.2186C154.457 79.386 155.387 72.9009 151.522 71.8613C150.438 71.5694 149.259 72.1619 148.584 73.0606C147.911 73.9593 147.661 75.1038 147.555 76.2225C147.351 78.3708 147.171 80.5291 147.029 82.6831C146.807 86.0349 146.658 89.391 146.566 92.7485C146.479 95.9205 146.071 99.3284 146.423 102.479C146.596 104.022 146.98 106.151 148.298 107.164C148.905 107.628 149.516 107.793 150.087 107.74Z" fill="white"/>
<path d="M92.9157 133.817C92.6871 133.766 92.3823 133.664 92.3046 133.436C92.1781 133.181 92.2543 132.011 92.2543 131.732C92.2802 131.528 92.2284 131.325 92.2284 131.121C92.2543 127.943 92.2284 118.545 92.1781 115.365C92.1781 114.654 92.1277 113.966 92.1019 113.255C91.7208 113.255 89.5337 113.23 89.1513 113.255C88.5416 113.305 87.906 113.407 87.3208 113.23C86.9642 113.128 86.7097 112.822 86.6593 112.467C86.5831 112.086 86.5831 111.729 86.5573 111.348C86.5069 110.635 86.5069 109.415 87.1928 109.185C87.4991 109.083 88.7199 109.135 89.0506 109.185C89.2778 109.211 90.5762 109.185 90.8049 109.185C92.6612 109.185 94.5176 109.159 96.3495 109.109C96.8326 109.083 99.5273 108.932 99.986 108.88C100.215 108.855 101.283 108.778 101.512 108.83C101.842 108.906 102.123 109.287 102.173 109.618C102.3 110.534 102.453 111.474 102.225 112.365C102.173 112.517 102.097 112.695 101.944 112.797C101.435 113.255 99.4266 113.128 98.7393 113.128C97.901 113.128 97.0353 113.152 96.1712 113.178C96.197 113.89 96.2474 114.628 96.2474 115.341C96.2718 116.486 96.3495 129.392 96.3236 130.511C96.3236 130.638 96.2991 131.197 96.2991 131.299C96.3998 132.011 96.604 133.334 95.9929 133.69C95.4594 133.995 93.5268 133.869 92.9157 133.817Z" fill="white"/>
<path fill-rule="evenodd" clip-rule="evenodd" d="M102.177 134.628C101.999 134.602 101.821 134.526 101.719 134.4C101.592 134.247 101.54 134.043 101.54 133.865C101.516 133.662 101.49 132.441 101.49 132.237C101.466 130.966 101.54 127.693 101.642 126.422C101.745 125.201 101.873 123.981 102.126 122.786C102.38 121.615 102.813 120.496 103.296 119.428C103.932 118.081 104.796 116.732 105.942 115.792C106.73 115.13 107.696 114.647 108.688 114.493C109.197 114.418 109.731 114.418 110.238 114.519C111.435 114.749 112.655 115.461 113.419 116.427C114.486 117.724 114.943 119.478 115.123 121.132C115.249 122.479 115.275 123.802 115.326 125.125C115.352 125.812 115.402 131.501 115.478 132.162C115.58 132.796 115.681 134.056 115.504 134.666C115.326 135.201 114.359 135.677 113.8 135.651C113.596 135.651 112.453 135.6 112.248 135.574C112.02 135.574 111.739 135.524 111.587 135.346C111.232 134.939 111.333 132.441 111.384 131.906C111.384 131.882 111.384 131.882 111.384 131.856C111.333 131.118 111.333 128.355 111.307 127.617C110.468 127.667 106.425 127.667 105.611 127.923C105.559 128.634 105.533 131.323 105.559 132.034C105.559 132.11 105.585 132.162 105.611 132.237C105.611 132.441 105.661 133.51 105.636 133.712C105.636 133.967 105.585 134.298 105.407 134.476C105.204 134.654 104.898 134.654 104.619 134.679C104.238 134.73 102.558 134.73 102.177 134.628ZM106.094 123.752C106.704 123.7 110.57 123.624 111.205 123.548C111.154 122.353 111.104 121.106 110.749 119.962C110.647 119.606 110.468 119.199 110.188 118.919C109.985 118.69 109.655 118.462 109.324 118.512C108.56 118.665 108.001 119.428 107.568 120.09C106.856 121.182 106.373 122.455 106.094 123.752Z" fill="white"/>
<path d="M129.743 135.618C129.59 135.618 128.903 135.592 128.75 135.541C128.572 135.49 128.42 135.337 128.343 135.134C128.241 134.854 127.656 133.202 127.504 132.921C126.742 131.42 125.928 129.921 124.962 128.521C124.427 128.852 123.841 129.157 123.258 129.437C123.206 129.462 123.104 129.488 123.104 129.538C123.104 129.895 123.079 131.803 123.079 132.133C123.13 133.1 123.715 134.981 122.875 135.439C122.52 135.618 122.061 135.618 121.68 135.618C121.247 135.618 119.798 135.668 119.417 135.464C119.214 135.337 119.086 135.083 119.06 134.854C119.01 134.371 119.086 133.888 119.034 133.405C119.01 133.048 119.034 131.065 119.034 130.708C119.034 128.217 118.958 125.723 118.882 123.231C118.858 122.698 118.806 119.823 118.858 119.29C118.858 119.212 118.832 118.908 118.832 118.831C118.806 118.45 118.755 117.967 119.01 117.662C119.214 117.382 119.595 117.332 119.926 117.28C120.459 117.229 122.061 117.255 122.494 117.534C122.672 117.61 122.799 117.789 122.875 117.967C123.079 118.424 122.977 120.23 122.925 120.765C122.851 121.349 122.977 124.35 123.003 124.935C123.537 124.605 123.994 124.198 124.452 123.766C125.266 123.029 126.03 122.189 126.614 121.273C126.844 120.892 127.81 119.29 127.912 118.857C128.013 118.476 128.089 118.019 128.343 117.687C128.42 117.585 128.75 117.357 128.878 117.332C129.081 117.255 129.895 117.229 130.099 117.255C130.531 117.28 130.963 117.357 131.344 117.534C131.651 117.662 131.98 117.891 132.082 118.196C132.209 118.578 132.158 119.035 132.056 119.442C131.98 119.849 131.777 120.206 131.623 120.587C130.785 122.545 129.564 124.376 128.089 125.902C129.64 128.114 130.887 130.556 132.056 132.998C132.337 133.557 132.337 134.27 132.184 134.854C132.082 135.185 131.802 135.464 131.497 135.541C130.937 135.694 130.328 135.642 129.743 135.618Z" fill="white"/>
<path d="M113.792 67.654C113.792 67.1608 113.628 64.2361 113.628 63.7429C113.635 63.4726 113.652 63.1447 113.635 62.8068V62.7996C113.611 62.1008 113.471 61.3948 112.938 61.2222C112.165 60.9346 110.194 60.8771 109.134 61.1733C108.978 61.2136 108.847 61.2625 108.74 61.32C108.543 61.4192 108.379 61.6076 108.313 61.8132C108.116 62.4617 108.313 63.1519 108.346 63.8421C108.431 64.8903 108.48 65.9443 108.506 67.007C108.444 67.5462 108.384 68.0796 108.323 68.6189C108.203 69.0963 108.062 69.5679 107.872 70.0266C107.417 71.1352 106.683 72.2625 105.616 72.8622C104.803 73.3194 103.742 73.4143 102.953 72.9168C102.267 72.4869 101.889 71.6946 101.7 70.908C101.085 68.3572 101.194 65.8178 101.092 63.2281C101.07 62.6846 101.154 61.875 100.773 61.4293C100.576 61.1992 100.215 61.1345 99.9187 61.1345C99.6556 61.1014 98.1774 61.0353 97.9142 61.0353C97.191 61.0022 95.9429 61.0022 95.7128 61.6924C95.4914 62.4804 95.9098 63.809 95.9429 64.6962C96.009 66.4045 96.0421 68.1127 96.206 69.854C96.4447 71.9908 97.027 74.2569 98.4074 75.9249C99.3924 77.173 100.97 78.0933 102.514 78.3881C103.171 78.5204 103.861 78.5204 104.519 78.4211C105.8 78.2241 107.048 77.6001 108.067 76.746C108.231 76.6151 108.387 76.4742 108.543 76.3189V77.5095C108.51 78.1005 108.51 101.937 108.477 102.495C108.444 102.955 108.247 104.499 108.477 104.893C108.674 105.222 109.134 105.32 109.495 105.353C110.185 105.419 112.519 105.486 113.143 105.156C113.34 105.057 113.471 104.893 113.562 104.696C113.792 104.105 113.759 81.0252 113.759 80.4011C113.792 76.1305 113.858 71.8916 113.792 67.654Z" fill="white"/>
<path d="M76.7608 111.088C76.3999 110.858 76.2691 110.331 76.2691 109.904C76.3021 108.985 76.3668 108.065 76.3999 107.145C76.4646 105.865 76.4646 86.3857 76.4646 85.1045C76.4646 83.993 76.4661 82.8829 76.4459 81.7729C76.4272 80.7692 76.2748 78.4484 76.2748 78.4484C76.2748 78.4484 74.4918 82.6888 73.8188 84.607C73.0898 86.6877 72.2918 88.5124 71.4635 90.5571C71.002 91.6931 70.5692 92.9685 69.311 93.3639C66.4006 94.2813 65.4933 91.4371 64.7025 89.2414C64.0194 87.3462 63.312 85.464 62.6937 83.5487C62.1847 81.9713 61.7332 80.3465 61.0602 78.8295C60.9941 80.3407 60.8287 93.8801 61.0257 95.3914C61.0602 95.8831 61.158 97.6245 60.9596 98.0846C60.8949 98.2485 60.764 98.3794 60.5986 98.4455C60.3355 98.6094 60.0077 98.6094 59.7115 98.6094C58.7265 98.6094 57.7415 98.6756 56.7551 98.5433C56.4273 98.5117 56.0649 98.3794 55.9024 98.1177C55.6062 97.6245 55.7371 95.7192 55.704 95.1599C55.6393 92.3689 55.6723 83.9542 55.7371 81.1301C55.8032 78.3708 55.9024 75.6114 56.2633 72.8851C56.328 72.1618 56.4934 71.44 56.6904 70.7498C56.8212 70.2566 57.0182 69.7303 57.4137 69.3694C58.482 68.3916 60.3901 68.5527 61.6713 68.7928C61.8683 68.8288 62.0711 68.869 62.235 68.9812C62.9022 69.4399 63.0345 70.5571 63.2847 71.2675C63.647 72.2989 64.0099 73.3299 64.3732 74.3604C65.0131 76.28 65.7148 78.181 66.3891 80.0891C66.9959 81.8103 67.423 83.6163 68.2527 85.2498C70.2197 81.6808 72.3062 74.7242 74.4688 71.2718C74.9634 70.4838 75.4667 69.4054 76.3223 68.9826C76.804 68.7439 77.3647 68.7482 77.9025 68.7569C78.4878 68.7655 79.1075 68.7856 79.5978 69.1063C80.0997 69.4356 80.37 70.028 80.5008 70.6146C80.695 71.4788 80.7482 72.3747 80.9135 73.2446C81.1177 74.323 81.2601 75.4 81.3693 76.4928C81.598 78.7935 81.7216 81.1172 81.7216 83.4293C81.7216 85.5647 81.7216 105.897 81.6224 108C81.6224 108.065 81.6555 108.459 81.6555 108.525C81.6886 109.182 81.6886 109.873 81.4916 110.497C81.3593 110.922 81.0645 111.185 80.6044 111.219C79.8164 111.318 77.451 111.482 76.7608 111.088Z" fill="white"/>
<path d="M45.7651 121.866C45.6817 121.73 45.6548 121.602 45.6846 121.483C45.7133 121.362 45.7982 121.259 45.9391 121.173L48.408 119.666C48.5623 119.573 48.7051 119.541 48.8365 119.573C48.9678 119.605 49.0804 119.698 49.1744 119.853L50.516 122.049C50.6099 122.203 50.6411 122.347 50.6094 122.479C50.5778 122.609 50.4843 122.722 50.329 122.817L47.8601 124.322C47.7202 124.409 47.5898 124.437 47.469 124.407C47.3482 124.378 47.2466 124.295 47.1642 124.16C47.0808 124.024 47.0544 123.896 47.0851 123.777C47.1158 123.66 47.2011 123.557 47.341 123.471L49.6216 122.082L48.7358 120.633L46.4582 122.023C46.3172 122.109 46.1878 122.139 46.0699 122.115C45.952 122.09 45.8504 122.007 45.7651 121.866Z" fill="white"/>
<path fill-rule="evenodd" clip-rule="evenodd" d="M48.3157 128.391C48.2189 128.264 48.1786 128.141 48.1949 128.022C48.2112 127.903 48.2846 127.793 48.4149 127.693L51.9594 124.994C52.0907 124.894 52.2158 124.853 52.3347 124.871C52.4545 124.886 52.5609 124.955 52.6539 125.078C52.7498 125.204 52.79 125.327 52.7747 125.447C52.7584 125.566 52.6846 125.675 52.5533 125.775L52.421 125.874C52.6136 125.843 52.8111 125.861 53.0134 125.93C53.2933 126.028 53.533 126.208 53.7323 126.469C53.9384 126.739 54.054 127.026 54.0789 127.332C54.1038 127.637 54.0405 127.937 53.8891 128.232C53.7376 128.53 53.4946 128.805 53.1601 129.059C52.8303 129.309 52.5005 129.47 52.1708 129.541C51.841 129.613 51.5333 129.596 51.2476 129.492C50.962 129.39 50.7146 129.202 50.5057 128.925C50.3091 128.668 50.2013 128.392 50.1821 128.1C50.1687 127.894 50.1989 127.704 50.2727 127.531L49.0189 128.485C48.8875 128.585 48.7615 128.626 48.6407 128.608C48.5199 128.59 48.4116 128.518 48.3157 128.391ZM50.9385 128.245C51.0583 128.402 51.2011 128.51 51.367 128.57C51.5328 128.632 51.7159 128.637 51.9163 128.588C52.1156 128.54 52.3275 128.43 52.5518 128.258C52.8902 128.001 53.0882 127.737 53.1457 127.466C53.2032 127.197 53.1418 126.943 52.9616 126.705C52.8428 126.549 52.7014 126.44 52.5374 126.379C52.3726 126.317 52.1904 126.309 51.991 126.357C51.7916 126.407 51.5798 126.517 51.3555 126.687C51.0209 126.941 50.823 127.205 50.7616 127.479C50.6993 127.753 50.7583 128.009 50.9385 128.245Z" fill="white"/>
<path fill-rule="evenodd" clip-rule="evenodd" d="M54.6112 133.755C54.3351 133.461 54.1559 133.148 54.0734 132.818C53.99 132.488 54.0034 132.158 54.1137 131.83C54.2249 131.501 54.4319 131.195 54.7349 130.912C54.963 130.698 55.1993 130.54 55.4437 130.439C55.6872 130.339 55.9341 130.291 56.1843 130.297C56.4335 130.305 56.6756 130.365 56.9104 130.479C57.1453 130.595 57.3662 130.763 57.5733 130.984C57.8494 131.278 58.0286 131.591 58.1111 131.922C58.1945 132.251 58.182 132.579 58.0737 132.907C57.9644 133.234 57.7588 133.539 57.4568 133.823C57.2277 134.035 56.9905 134.194 56.7451 134.297C56.4987 134.4 56.2509 134.448 56.0017 134.442C55.7515 134.435 55.5089 134.374 55.2741 134.26C55.0392 134.145 54.8183 133.976 54.6112 133.755ZM55.1648 133.237C55.299 133.381 55.4519 133.475 55.6235 133.518C55.7951 133.562 55.9777 133.549 56.1713 133.48C56.365 133.411 56.5648 133.281 56.7709 133.088C57.0806 132.797 57.2502 132.515 57.28 132.239C57.3106 131.964 57.2239 131.718 57.0197 131.502C56.8865 131.357 56.735 131.263 56.5653 131.219C56.3956 131.173 56.214 131.185 56.0203 131.253C55.8257 131.322 55.6259 131.453 55.4207 131.646C55.114 131.932 54.9438 132.215 54.9103 132.494C54.8767 132.773 54.9616 133.021 55.1648 133.237Z" fill="white"/>
<path d="M59.388 138.377C59.0812 138.104 58.8698 137.805 58.7538 137.479C58.6388 137.153 58.6216 136.82 58.7021 136.48C58.7836 136.141 58.9619 135.816 59.237 135.505C59.445 135.271 59.6655 135.092 59.8984 134.969C60.1314 134.845 60.371 134.777 60.6174 134.766C60.8628 134.752 61.1101 134.793 61.3593 134.89C61.6067 134.985 61.8463 135.136 62.0783 135.34C62.2087 135.457 62.3347 135.6 62.4565 135.771C62.5773 135.944 62.6683 136.131 62.7297 136.333C62.7584 136.43 62.758 136.515 62.7282 136.588C62.6985 136.662 62.6525 136.722 62.5902 136.768C62.5269 136.815 62.4579 136.843 62.3831 136.851C62.3084 136.86 62.2384 136.844 62.1732 136.805C62.109 136.766 62.0591 136.698 62.0237 136.602C61.9824 136.473 61.9273 136.355 61.8583 136.248C61.7902 136.142 61.714 136.051 61.6297 135.977C61.4993 135.861 61.3656 135.779 61.2285 135.732C61.0924 135.686 60.9553 135.671 60.8173 135.686C60.6783 135.703 60.5402 135.752 60.4031 135.836C60.2651 135.919 60.129 136.037 59.9948 136.188C59.734 136.482 59.5993 136.776 59.5907 137.07C59.5821 137.365 59.7072 137.626 59.966 137.855C60.0494 137.929 60.1462 137.994 60.2565 138.049C60.3667 138.104 60.4904 138.147 60.6274 138.177C60.7271 138.202 60.7986 138.243 60.8417 138.302C60.8848 138.361 60.9059 138.428 60.905 138.502C60.904 138.575 60.882 138.645 60.8388 138.709C60.7947 138.773 60.7372 138.823 60.6663 138.86C60.5953 138.896 60.5143 138.906 60.4233 138.89C60.221 138.853 60.0307 138.786 59.8524 138.691C59.6732 138.598 59.5183 138.493 59.388 138.377Z" fill="white"/>
<path d="M63.5061 141.677C63.3776 141.581 63.3047 141.472 63.2875 141.351C63.2693 141.227 63.3091 141.099 63.4068 140.968L65.0001 138.826L64.2193 138.245C63.9892 138.074 63.9518 137.884 64.1071 137.675C64.18 137.577 64.2677 137.523 64.3702 137.514C64.4738 137.505 64.5787 137.54 64.6851 137.619L67.0448 139.372C67.2748 139.543 67.3127 139.733 67.1584 139.943C67.0817 140.045 66.9935 140.101 66.8938 140.108C66.795 140.118 66.6901 140.081 66.5789 139.999L65.7995 139.419L64.2078 141.562C64.109 141.694 64.0002 141.771 63.8814 141.792C63.7634 141.813 63.6383 141.775 63.5061 141.677Z" fill="white"/>
<path d="M67.42 144.361C67.2849 144.276 67.2072 144.17 67.1871 144.044C67.167 143.917 67.2024 143.782 67.2935 143.64L68.8652 141.174C68.9591 141.025 69.0669 140.934 69.1887 140.902C69.3104 140.869 69.4384 140.896 69.5726 140.981C69.7068 141.066 69.7864 141.172 69.8113 141.297C69.8353 141.423 69.7998 141.56 69.7049 141.708L68.1333 144.174C68.0422 144.318 67.9353 144.407 67.8126 144.442C67.6889 144.477 67.5581 144.451 67.42 144.361ZM69.9709 140.357C69.8137 140.256 69.7169 140.139 69.6805 140.004C69.6431 139.871 69.6685 139.735 69.7567 139.596C69.8477 139.451 69.9613 139.369 70.0974 139.35C70.2336 139.329 70.3798 139.368 70.536 139.468C70.698 139.571 70.7972 139.688 70.8337 139.819C70.8701 139.949 70.8428 140.086 70.7517 140.229C70.6626 140.368 70.5504 140.449 70.4152 140.473C70.2801 140.498 70.132 140.459 69.9709 140.357Z" fill="white"/>
<path fill-rule="evenodd" clip-rule="evenodd" d="M70.2098 147.714C70.0688 147.641 69.9807 147.546 69.9452 147.431C69.9088 147.316 69.9294 147.186 70.007 147.04L72.0848 143.1C72.1615 142.954 72.2574 142.864 72.3724 142.828C72.4865 142.792 72.6116 142.81 72.7477 142.882C72.8896 142.956 72.9782 143.051 73.0137 143.166C73.0492 143.281 73.0281 143.412 72.9504 143.557L72.8742 143.704C73.0353 143.594 73.2217 143.528 73.4336 143.506C73.7288 143.475 74.0222 143.537 74.3136 143.691C74.6146 143.849 74.8403 144.061 74.9908 144.327C75.1423 144.592 75.2113 144.891 75.1979 145.224C75.1854 145.557 75.0809 145.908 74.8844 146.279C74.6917 146.646 74.4607 146.93 74.1913 147.134C73.922 147.338 73.6358 147.453 73.3329 147.479C73.0309 147.506 72.7271 147.439 72.4213 147.277C72.1346 147.127 71.9214 146.923 71.7814 146.665C71.6817 146.484 71.629 146.299 71.6232 146.111L70.887 147.505C70.8103 147.65 70.7135 147.74 70.5966 147.775C70.4796 147.808 70.3507 147.788 70.2098 147.714ZM72.5277 146.478C72.7021 146.57 72.8771 146.608 73.0525 146.593C73.2289 146.578 73.3976 146.506 73.5587 146.377C73.7188 146.25 73.8649 146.061 73.9972 145.811C74.1947 145.435 74.2628 145.112 74.2014 144.843C74.1391 144.573 73.9766 144.368 73.714 144.23C73.5395 144.138 73.365 144.099 73.1906 144.111C73.0151 144.124 72.8474 144.195 72.6873 144.324C72.5262 144.451 72.3801 144.64 72.2487 144.89C72.0532 145.26 71.9851 145.583 72.0445 145.858C72.104 146.133 72.265 146.34 72.5277 146.478Z" fill="white"/>
<path d="M81.9061 151.302C81.5189 151.17 81.2092 150.976 80.9772 150.72C80.7443 150.463 80.5995 150.162 80.543 149.818C80.4874 149.473 80.5267 149.105 80.6609 148.712C80.7615 148.415 80.8962 148.165 81.0649 147.962C81.2327 147.759 81.4273 147.604 81.6487 147.497C81.8711 147.39 82.1151 147.333 82.3806 147.325C82.6471 147.318 82.9261 147.365 83.2175 147.464C83.3833 147.521 83.5554 147.605 83.7337 147.717C83.912 147.828 84.0688 147.965 84.2039 148.13C84.2672 148.207 84.2988 148.285 84.2988 148.366C84.3007 148.445 84.2816 148.517 84.2413 148.584C84.201 148.653 84.1483 148.705 84.0831 148.741C84.017 148.779 83.9465 148.791 83.8718 148.779C83.797 148.767 83.7246 148.724 83.6546 148.651C83.5664 148.547 83.4701 148.459 83.3656 148.386C83.2611 148.314 83.1562 148.26 83.0507 148.224C82.8849 148.167 82.7301 148.144 82.5863 148.153C82.4425 148.164 82.3097 148.203 82.188 148.271C82.0672 148.338 81.9593 148.437 81.8644 148.569C81.7686 148.699 81.688 148.86 81.6229 149.05C81.4963 149.422 81.4858 149.745 81.5912 150.02C81.6957 150.294 81.9114 150.487 82.2383 150.6C82.3447 150.635 82.4592 150.657 82.5819 150.667C82.7056 150.675 82.8365 150.667 82.9745 150.641C83.0752 150.624 83.1571 150.635 83.2204 150.674C83.2827 150.712 83.3277 150.765 83.3555 150.833C83.3824 150.902 83.3886 150.975 83.3742 151.05C83.3589 151.126 83.3254 151.195 83.2736 151.256C83.2218 151.317 83.1504 151.357 83.0593 151.377C82.859 151.421 82.6582 151.433 82.4569 151.414C82.2555 151.397 82.072 151.36 81.9061 151.302Z" fill="white"/>
<path d="M86.1259 152.563C85.9917 152.533 85.8964 152.468 85.8398 152.371C85.7832 152.272 85.7722 152.151 85.8067 152.007L86.4897 149.072C86.5166 148.959 86.5544 148.867 86.6033 148.797C86.6522 148.726 86.715 148.678 86.7917 148.652C86.8693 148.627 86.9571 148.626 87.0548 148.648C87.1536 148.672 87.2312 148.708 87.2878 148.756C87.3443 148.805 87.3899 148.86 87.4244 148.922C87.4598 148.986 87.4857 149.051 87.502 149.119L88.1865 151.342L89.784 149.652C89.8348 149.593 89.8885 149.543 89.945 149.502C90.0006 149.461 90.0649 149.432 90.1377 149.416C90.2096 149.4 90.2921 149.403 90.3851 149.424C90.5346 149.46 90.6352 149.531 90.687 149.639C90.7388 149.746 90.7445 149.885 90.7043 150.056L90.0198 152.989C89.9863 153.134 89.924 153.238 89.8329 153.301C89.7418 153.364 89.6263 153.38 89.4864 153.347C89.3522 153.316 89.2568 153.252 89.2002 153.154C89.1436 153.056 89.1326 152.934 89.1671 152.789L89.6992 150.509L89.8847 150.552L88.3331 152.187C88.2967 152.227 88.2488 152.263 88.1894 152.296C88.1299 152.328 88.0537 152.334 87.9607 152.312C87.862 152.29 87.7949 152.249 87.7594 152.191C87.7239 152.134 87.6981 152.082 87.6818 152.034L87.006 149.882L87.1914 149.925L86.6594 152.205C86.6259 152.35 86.5635 152.454 86.4725 152.517C86.3814 152.581 86.2659 152.596 86.1259 152.563Z" fill="white"/>
<path d="M94.226 154.135C93.9461 154.1 93.7036 154.014 93.4985 153.879C93.2933 153.745 93.1399 153.577 93.0383 153.376C92.9377 153.177 92.9017 152.961 92.9305 152.729C92.966 152.444 93.0676 152.228 93.2353 152.08C93.404 151.933 93.659 151.843 94.0003 151.81C94.3416 151.777 94.7916 151.796 95.3505 151.866L95.7459 151.915L95.6755 152.483L95.2872 152.436C94.9603 152.394 94.6977 152.378 94.4993 152.387C94.3008 152.393 94.1556 152.43 94.0636 152.496C93.9725 152.563 93.9183 152.665 93.9011 152.802C93.88 152.976 93.9231 153.125 94.0305 153.251C94.1379 153.376 94.2994 153.453 94.5151 153.481C94.6895 153.502 94.8491 153.48 94.9939 153.415C95.1377 153.35 95.2585 153.251 95.3562 153.12C95.4521 152.987 95.5115 152.828 95.5346 152.643L95.6481 151.734C95.6807 151.47 95.6462 151.273 95.5446 151.143C95.443 151.013 95.2551 150.931 94.981 150.897C94.8285 150.878 94.6617 150.875 94.4806 150.89C94.2994 150.905 94.1057 150.945 93.8996 151.011C93.7932 151.046 93.7031 151.048 93.6293 151.018C93.5555 150.987 93.5013 150.936 93.4668 150.865C93.4333 150.793 93.4213 150.718 93.4309 150.64C93.4414 150.56 93.4721 150.485 93.5229 150.414C93.5747 150.343 93.6533 150.295 93.7587 150.27C94.0137 150.201 94.2558 150.159 94.4849 150.144C94.714 150.129 94.921 150.133 95.1061 150.156C95.4847 150.204 95.7895 150.301 96.0206 150.447C96.2516 150.594 96.4131 150.792 96.5051 151.041C96.5972 151.29 96.6202 151.6 96.5742 151.97L96.3383 153.868C96.3182 154.031 96.2631 154.151 96.173 154.229C96.0838 154.305 95.9654 154.335 95.8178 154.316C95.6692 154.298 95.56 154.24 95.49 154.142C95.4181 154.046 95.3927 153.915 95.4138 153.751L95.4598 153.373L95.5245 153.38C95.4641 153.561 95.3716 153.711 95.247 153.832C95.1224 153.954 94.9738 154.041 94.8012 154.094C94.6277 154.147 94.436 154.161 94.226 154.135Z" fill="white"/>
<path d="M99.8163 154.615C99.6562 154.611 99.5335 154.564 99.4482 154.473C99.3638 154.384 99.3236 154.257 99.3274 154.092L99.4079 151.097C99.4118 150.932 99.4587 150.807 99.5488 150.721C99.6389 150.636 99.7636 150.596 99.9227 150.6C100.082 150.604 100.203 150.651 100.286 150.741C100.369 150.832 100.408 150.959 100.403 151.124L100.374 152.182L100.941 152.198L101.972 150.887C102.049 150.788 102.136 150.725 102.232 150.698C102.329 150.671 102.42 150.672 102.507 150.701C102.594 150.73 102.664 150.78 102.718 150.851C102.772 150.922 102.799 151.004 102.8 151.097C102.8 151.189 102.761 151.284 102.683 151.383L101.701 152.657L101.494 152.333C101.637 152.352 101.765 152.395 101.878 152.461C101.99 152.529 102.094 152.621 102.189 152.737C102.285 152.854 102.378 152.999 102.469 153.171L102.916 154.02C102.977 154.134 102.996 154.237 102.975 154.329C102.954 154.422 102.907 154.499 102.834 154.56C102.761 154.623 102.676 154.66 102.58 154.673C102.484 154.687 102.39 154.673 102.298 154.63C102.206 154.587 102.13 154.51 102.07 154.397L101.56 153.45C101.494 153.326 101.429 153.229 101.365 153.161C101.301 153.093 101.227 153.045 101.145 153.018C101.063 152.989 100.964 152.973 100.847 152.969L100.354 152.954L100.322 154.119C100.319 154.283 100.273 154.408 100.186 154.494C100.099 154.58 99.9754 154.62 99.8163 154.615Z" fill="white"/>
<path fill-rule="evenodd" clip-rule="evenodd" d="M107.431 154.522C107.029 154.551 106.673 154.494 106.365 154.351C106.056 154.208 105.809 153.99 105.623 153.696C105.437 153.403 105.329 153.05 105.301 152.637C105.278 152.324 105.305 152.041 105.38 151.788C105.455 151.535 105.574 151.314 105.736 151.124C105.898 150.935 106.098 150.785 106.334 150.674C106.572 150.564 106.842 150.498 107.144 150.477C107.547 150.448 107.902 150.506 108.211 150.649C108.519 150.792 108.766 151.009 108.953 151.299C109.138 151.589 109.245 151.941 109.275 152.355C109.297 152.667 109.271 152.952 109.196 153.208C109.121 153.463 109.002 153.685 108.839 153.875C108.677 154.065 108.477 154.215 108.24 154.325C108.003 154.435 107.733 154.501 107.431 154.522ZM107.378 153.767C107.574 153.753 107.743 153.694 107.884 153.587C108.025 153.482 108.13 153.332 108.199 153.138C108.268 152.944 108.293 152.707 108.273 152.427C108.243 152.002 108.131 151.691 107.936 151.495C107.741 151.298 107.494 151.211 107.197 151.232C107.002 151.245 106.833 151.304 106.691 151.407C106.549 151.511 106.444 151.659 106.376 151.853C106.306 152.048 106.281 152.285 106.301 152.566C106.331 152.984 106.444 153.294 106.639 153.497C106.835 153.698 107.081 153.788 107.378 153.767Z" fill="white"/>
<path d="M113.64 153.796C113.374 153.84 113.11 153.857 112.849 153.849C112.59 153.841 112.352 153.807 112.138 153.745C112.035 153.715 111.957 153.667 111.905 153.603C111.851 153.539 111.819 153.469 111.808 153.393C111.799 153.316 111.811 153.245 111.846 153.18C111.881 153.115 111.937 153.068 112.013 153.039C112.089 153.011 112.184 153.014 112.297 153.049C112.478 153.1 112.675 153.128 112.888 153.133C113.102 153.138 113.306 153.124 113.499 153.091C113.835 153.035 114.067 152.955 114.195 152.851C114.323 152.746 114.373 152.61 114.345 152.443C114.319 152.29 114.245 152.184 114.122 152.123C113.999 152.064 113.836 152.051 113.632 152.084L112.931 152.201C112.812 152.22 112.712 152.203 112.632 152.149C112.554 152.096 112.505 152.013 112.487 151.902C112.468 151.793 112.488 151.702 112.546 151.63C112.604 151.558 112.694 151.513 112.815 151.494L113.42 151.391C113.602 151.362 113.74 151.3 113.833 151.207C113.925 151.113 113.959 150.996 113.935 150.855C113.91 150.703 113.83 150.595 113.693 150.532C113.555 150.468 113.326 150.463 113.006 150.516C112.823 150.546 112.648 150.593 112.481 150.657C112.314 150.719 112.152 150.8 111.997 150.901C111.88 150.975 111.775 151.002 111.682 150.982C111.591 150.962 111.52 150.914 111.469 150.836C111.418 150.758 111.401 150.671 111.419 150.578C111.435 150.484 111.493 150.401 111.594 150.33C111.808 150.187 112.035 150.072 112.276 149.984C112.517 149.895 112.777 149.827 113.055 149.781C113.569 149.696 113.976 149.726 114.277 149.873C114.579 150.019 114.758 150.262 114.815 150.603C114.854 150.845 114.807 151.062 114.673 151.253C114.538 151.445 114.337 151.582 114.07 151.665L114.051 151.554C114.38 151.521 114.65 151.574 114.861 151.711C115.072 151.848 115.201 152.058 115.249 152.34C115.307 152.692 115.198 152.999 114.924 153.259C114.65 153.52 114.222 153.699 113.64 153.796Z" fill="white"/>
<path d="M119.406 152.577C119.134 152.649 118.878 152.661 118.637 152.612C118.395 152.564 118.191 152.466 118.023 152.319C117.854 152.17 117.74 151.983 117.681 151.758C117.607 151.481 117.621 151.242 117.722 151.042C117.823 150.841 118.026 150.663 118.331 150.505C118.635 150.347 119.059 150.196 119.603 150.052L119.989 149.95L120.135 150.505L119.758 150.606C119.439 150.69 119.189 150.773 119.006 150.853C118.825 150.935 118.705 151.023 118.646 151.118C118.585 151.214 118.573 151.328 118.608 151.462C118.652 151.631 118.748 151.754 118.896 151.831C119.042 151.908 119.221 151.918 119.431 151.863C119.601 151.818 119.741 151.738 119.851 151.624C119.96 151.509 120.035 151.372 120.076 151.214C120.117 151.055 120.113 150.885 120.065 150.705L119.829 149.819C119.762 149.564 119.657 149.394 119.514 149.31C119.371 149.227 119.166 149.221 118.899 149.292C118.75 149.331 118.594 149.391 118.431 149.473C118.269 149.554 118.105 149.664 117.938 149.801C117.853 149.874 117.77 149.909 117.691 149.907C117.61 149.907 117.541 149.88 117.482 149.827C117.425 149.773 117.385 149.708 117.364 149.631C117.344 149.554 117.345 149.473 117.366 149.388C117.387 149.303 117.442 149.229 117.531 149.168C117.742 149.008 117.951 148.878 118.157 148.778C118.364 148.68 118.557 148.607 118.738 148.56C119.108 148.461 119.427 148.437 119.695 148.487C119.965 148.536 120.188 148.66 120.367 148.857C120.545 149.055 120.682 149.333 120.778 149.693L121.267 151.541C121.309 151.701 121.303 151.833 121.248 151.938C121.194 152.042 121.095 152.114 120.951 152.153C120.807 152.191 120.684 152.178 120.582 152.114C120.48 152.051 120.407 151.94 120.365 151.781L120.268 151.411L120.329 151.394C120.341 151.583 120.312 151.757 120.242 151.916C120.171 152.075 120.065 152.212 119.924 152.326C119.784 152.44 119.611 152.524 119.406 152.577Z" fill="white"/>
<path d="M127.213 150.024C127.064 150.079 126.934 150.081 126.824 150.03C126.713 149.977 126.63 149.873 126.572 149.719L125.635 147.22L124.486 147.65L124.645 148.076C124.774 148.42 124.868 148.736 124.929 149.025C124.989 149.314 125.013 149.577 125.002 149.814C124.991 150.051 124.943 150.265 124.857 150.455C124.769 150.647 124.644 150.821 124.481 150.979C124.394 151.062 124.303 151.11 124.208 151.124C124.114 151.136 124.027 151.125 123.948 151.089C123.87 151.054 123.808 150.998 123.762 150.921C123.716 150.845 123.696 150.761 123.701 150.667C123.705 150.575 123.747 150.483 123.827 150.391C123.926 150.274 123.995 150.148 124.036 150.014C124.076 149.881 124.091 149.732 124.08 149.567C124.071 149.404 124.04 149.224 123.988 149.027C123.937 148.831 123.867 148.611 123.777 148.367L123.55 147.762C123.486 147.593 123.482 147.448 123.538 147.325C123.594 147.201 123.706 147.108 123.875 147.045L125.771 146.334C125.94 146.271 126.086 146.267 126.21 146.323C126.333 146.379 126.426 146.492 126.489 146.662L127.504 149.37C127.561 149.524 127.565 149.658 127.514 149.771C127.462 149.884 127.362 149.968 127.213 150.024Z" fill="white"/>
<path d="M132.231 147.782C131.836 147.977 131.459 148.071 131.101 148.064C130.741 148.057 130.417 147.956 130.129 147.761C129.84 147.565 129.604 147.282 129.421 146.911C129.242 146.549 129.161 146.196 129.177 145.85C129.193 145.503 129.295 145.188 129.483 144.903C129.671 144.618 129.934 144.391 130.273 144.225C130.521 144.103 130.763 144.034 131 144.018C131.238 144 131.465 144.033 131.682 144.117C131.897 144.2 132.095 144.332 132.276 144.512C132.457 144.692 132.614 144.918 132.749 145.19C132.79 145.275 132.792 145.355 132.756 145.431C132.718 145.506 132.645 145.57 132.534 145.622L130.241 146.755L129.988 146.241L131.995 145.25L131.933 145.414C131.826 145.194 131.704 145.027 131.567 144.911C131.43 144.795 131.281 144.727 131.121 144.708C130.961 144.69 130.79 144.725 130.609 144.814C130.409 144.913 130.261 145.044 130.166 145.207C130.072 145.369 130.03 145.553 130.038 145.759C130.048 145.964 130.11 146.183 130.225 146.416L130.251 146.466C130.443 146.858 130.678 147.104 130.957 147.205C131.236 147.309 131.554 147.272 131.91 147.095C132.035 147.034 132.167 146.95 132.306 146.842C132.445 146.735 132.565 146.61 132.667 146.465C132.738 146.359 132.813 146.29 132.894 146.261C132.972 146.23 133.047 146.227 133.117 146.252C133.185 146.277 133.241 146.322 133.285 146.387C133.329 146.452 133.351 146.528 133.35 146.616C133.35 146.706 133.319 146.798 133.259 146.892C133.144 147.08 132.99 147.252 132.798 147.41C132.606 147.566 132.417 147.69 132.231 147.782Z" fill="white"/>
<path d="M138.475 144.211C138.341 144.296 138.214 144.325 138.095 144.298C137.976 144.271 137.872 144.187 137.783 144.048L137.153 143.072L136.817 143.287C136.719 143.35 136.643 143.414 136.588 143.482C136.534 143.549 136.496 143.628 136.476 143.72C136.456 143.812 136.45 143.928 136.457 144.068L136.515 145.141C136.522 145.268 136.495 145.375 136.436 145.46C136.377 145.546 136.303 145.607 136.213 145.643C136.122 145.679 136.03 145.691 135.937 145.679C135.843 145.666 135.763 145.626 135.698 145.556C135.632 145.489 135.596 145.392 135.589 145.263L135.537 144.301C135.527 144.106 135.531 143.934 135.551 143.785C135.573 143.635 135.614 143.503 135.675 143.388C135.736 143.272 135.823 143.169 135.934 143.079L135.953 143.444L134.444 142.882C134.327 142.838 134.243 142.776 134.193 142.696C134.143 142.619 134.123 142.536 134.132 142.448C134.141 142.36 134.174 142.281 134.231 142.213C134.288 142.144 134.363 142.096 134.456 142.068C134.548 142.04 134.653 142.048 134.771 142.093L136.339 142.675L136.735 142.422L136.161 141.53C136.072 141.391 136.039 141.262 136.063 141.144C136.087 141.023 136.166 140.919 136.301 140.833C136.434 140.748 136.561 140.718 136.683 140.744C136.804 140.77 136.909 140.852 136.998 140.99L137.573 141.881L137.967 141.628L138.081 139.963C138.088 139.837 138.125 139.736 138.19 139.66C138.254 139.584 138.329 139.535 138.414 139.511C138.501 139.487 138.586 139.488 138.67 139.517C138.755 139.545 138.822 139.598 138.872 139.675C138.922 139.754 138.944 139.856 138.936 139.98L138.828 141.595L138.495 141.43C138.623 141.365 138.753 141.329 138.885 141.322C139.015 141.313 139.153 141.33 139.3 141.371C139.447 141.413 139.606 141.48 139.779 141.571L140.627 142.019C140.741 142.079 140.816 142.152 140.85 142.241C140.885 142.328 140.888 142.417 140.862 142.508C140.834 142.598 140.785 142.677 140.715 142.745C140.644 142.812 140.559 142.854 140.46 142.87C140.361 142.888 140.253 142.867 140.138 142.807L139.185 142.313C139.061 142.247 138.954 142.205 138.862 142.185C138.769 142.164 138.682 142.165 138.598 142.187C138.514 142.21 138.423 142.252 138.325 142.315L137.99 142.531L138.62 143.51C138.71 143.648 138.742 143.778 138.715 143.9C138.688 144.021 138.608 144.124 138.475 144.211Z" fill="white"/>
<path d="M143.646 140.537C143.523 140.639 143.4 140.684 143.276 140.672C143.153 140.66 143.039 140.59 142.934 140.464L141.02 138.137C140.912 138.007 140.865 137.881 140.881 137.76C140.896 137.641 140.966 137.532 141.089 137.431C141.211 137.329 141.331 137.283 141.45 137.293C141.569 137.303 141.682 137.373 141.79 137.504L142.468 138.328L143.797 137.235L143.118 136.41C143.011 136.279 142.963 136.155 142.976 136.038C142.989 135.92 143.058 135.81 143.181 135.708C143.303 135.607 143.425 135.56 143.547 135.569C143.667 135.576 143.78 135.645 143.887 135.777L145.801 138.104C145.906 138.231 145.952 138.357 145.939 138.479C145.928 138.603 145.861 138.715 145.738 138.816C145.615 138.917 145.493 138.961 145.371 138.948C145.25 138.935 145.137 138.864 145.033 138.735L144.293 137.838L142.964 138.932L143.703 139.829C143.808 139.957 143.856 140.081 143.847 140.2C143.84 140.321 143.773 140.433 143.646 140.537Z" fill="white"/>
<path d="M148.71 136.105C148.64 136.177 148.567 136.224 148.492 136.246C148.417 136.27 148.339 136.266 148.259 136.234C148.177 136.203 148.093 136.144 148.007 136.059L145.866 133.94C145.757 133.83 145.7 133.719 145.696 133.605C145.695 133.489 145.745 133.381 145.846 133.28C145.946 133.178 146.053 133.129 146.165 133.131C146.278 133.134 146.389 133.19 146.499 133.298L148.249 135.031L148.103 135.178L147.625 131.935C147.613 131.841 147.613 131.74 147.623 131.63C147.634 131.522 147.691 131.415 147.796 131.308C147.867 131.237 147.939 131.191 148.013 131.17C148.086 131.149 148.161 131.153 148.24 131.182C148.32 131.212 148.402 131.27 148.489 131.356L150.636 133.481C150.742 133.585 150.798 133.695 150.804 133.81C150.81 133.924 150.762 134.032 150.661 134.134C150.557 134.24 150.448 134.29 150.334 134.285C150.219 134.28 150.108 134.225 150.003 134.121L148.246 132.382L148.398 132.23L148.877 135.484C148.892 135.574 148.896 135.673 148.887 135.78C148.877 135.887 148.818 135.996 148.71 136.105Z" fill="white"/>
<path d="M153.162 131.311C153.088 131.401 153.001 131.455 152.9 131.474C152.8 131.492 152.709 131.468 152.625 131.403C152.541 131.338 152.481 131.234 152.447 131.09L152.023 129.084L152.388 129.38L150.468 129.381C150.317 129.381 150.201 129.346 150.122 129.275C150.043 129.205 150.002 129.119 149.998 129.016C149.995 128.915 150.031 128.818 150.105 128.727C150.182 128.632 150.263 128.567 150.348 128.53C150.432 128.493 150.531 128.476 150.645 128.48L152.201 128.51L151.98 128.782L151.635 127.259C151.611 127.145 151.607 127.043 151.624 126.954C151.642 126.866 151.688 126.777 151.763 126.687C151.839 126.592 151.927 126.537 152.027 126.521C152.128 126.507 152.22 126.533 152.305 126.598C152.389 126.663 152.446 126.769 152.477 126.917L152.864 128.78L152.516 128.499L154.556 128.49C154.703 128.487 154.816 128.521 154.894 128.591C154.974 128.662 155.017 128.749 155.022 128.854C155.026 128.956 154.99 129.055 154.914 129.15C154.84 129.241 154.761 129.304 154.679 129.338C154.595 129.375 154.495 129.393 154.378 129.393L152.71 129.374L152.921 129.115L153.288 130.736C153.31 130.843 153.314 130.942 153.3 131.032C153.284 131.122 153.238 131.215 153.162 131.311Z" fill="white"/>
</symbol>
<symbol id="bg" width="300" height="585" viewBox="0 0 300 585" fill="none" xmlns="http://www.w3.org/2000/svg">
<ellipse opacity="0.6" cx="286" cy="315.5" rx="4" ry="3.5" fill="#21B8C8"/>
<ellipse opacity="0.4" cx="9" cy="20.5" rx="5" ry="5.5" fill="#1ABAC3"/>
<ellipse cx="8" cy="471.5" rx="5" ry="5.5" fill="#C2F1FF"/>
<ellipse cx="283" cy="4" rx="6" ry="4" fill="#FEDD9E"/>
<ellipse cx="21" cy="116.5" rx="5" ry="5.5" fill="#FEFBF5"/>
<circle opacity="0.4" cx="5.5" cy="342.5" r="5.5" fill="#69C3FA"/>
<ellipse opacity="0.6" cx="10.5" cy="569" rx="7.5" ry="5" fill="#FFD181"/>
<circle cx="249" cy="461" r="5" fill="#FFA4CC"/>
<circle cx="46.5" cy="437.5" r="3.5" fill="#FAADAA"/>
<circle opacity="0.2" cx="251.5" cy="531.5" r="3.5" fill="#69C3FA"/>
<ellipse opacity="0.4" cx="295" cy="579.5" rx="5" ry="5.5" fill="#FBA9A7"/>
<ellipse opacity="0.4" cx="282" cy="134.5" rx="5" ry="5.5" fill="#FBA9A7"/>
<ellipse cx="13.5" cy="129" rx="6.5" ry="5" fill="#C2F1FF"/>
<circle opacity="0.2" cx="284.5" cy="67.5" r="3.5" fill="#69C3FA"/>
</symbol>



<symbol id="phone" width="32" height="32" viewBox="0 0 32 32" fill="none" xmlns="http://www.w3.org/2000/svg">
<rect width="32" height="32" rx="16" transform="matrix(-1 0 0 1 32 0)" fill="#69C3FA"/>
<path d="M8.99741 24C10.7711 24 12.5529 23.5876 14.3431 22.7628C16.133 21.938 17.7776 20.7746 19.2769 19.2725C20.7761 17.7702 21.938 16.1255 22.7628 14.3384C23.5876 12.5514 24 10.7711 24 8.99741C24 8.71239 23.9059 8.4749 23.7176 8.28494C23.5294 8.09498 23.2941 8 23.0118 8H19.9421C19.7045 8 19.4948 8.07757 19.3132 8.23271C19.1315 8.38769 19.016 8.57922 18.9666 8.80729L18.4271 11.5765C18.3897 11.8334 18.3976 12.0542 18.4506 12.2388C18.5038 12.4235 18.5991 12.5785 18.7367 12.704L20.9104 14.82C20.5605 15.4606 20.1609 16.0667 19.7113 16.6381C19.2619 17.2094 18.7753 17.7551 18.2515 18.2751C17.7351 18.7916 17.1861 19.2713 16.6045 19.7141C16.0228 20.1569 15.3947 20.569 14.7202 20.9504L12.6082 18.82C12.4609 18.6667 12.2826 18.5593 12.0732 18.4976C11.8639 18.4362 11.6464 18.4211 11.4207 18.4525L8.80729 18.9847C8.56965 19.0475 8.37569 19.1687 8.22541 19.3485C8.07514 19.5282 8 19.7322 8 19.9602V23.0118C8 23.2941 8.09498 23.5294 8.28494 23.7176C8.4749 23.9059 8.71239 24 8.99741 24ZM21.5784 13.4842L19.8986 11.8769C19.8685 11.8528 19.8489 11.8196 19.8398 11.7774C19.8307 11.7352 19.8322 11.696 19.8442 11.6598L20.2534 9.55647C20.2655 9.50831 20.2866 9.47216 20.3167 9.448C20.3468 9.42384 20.386 9.41176 20.4344 9.41176H22.4471C22.4833 9.41176 22.5135 9.42384 22.5376 9.448C22.5616 9.47216 22.5736 9.50235 22.5736 9.53859C22.5255 10.1817 22.4202 10.8351 22.2579 11.4986C22.0957 12.1623 21.8692 12.8242 21.5784 13.4842ZM13.3901 21.6181C12.7663 21.9089 12.1156 22.1313 11.4381 22.2852C10.7605 22.4389 10.1273 22.5303 9.53859 22.5593C9.50235 22.5593 9.47216 22.5472 9.448 22.5231C9.42384 22.4989 9.41177 22.4687 9.41177 22.4325V20.4525C9.41177 20.4042 9.42384 20.3649 9.448 20.3348C9.47216 20.3047 9.50831 20.2836 9.55647 20.2715L11.5329 19.8696C11.5692 19.8576 11.6009 19.8561 11.628 19.8652C11.6551 19.8743 11.6838 19.8939 11.7141 19.924L13.3901 21.6181Z" fill="white"/>
</symbol>

<symbol id="viber" width="32" height="32" viewBox="0 0 32 32" fill="none" xmlns="http://www.w3.org/2000/svg">
<circle cx="15.5" cy="16.5" r="15.5" fill="#9179EE"/>
<path fill-rule="evenodd" clip-rule="evenodd" d="M19.2626 15.0725C19.1938 14.5246 19.0222 14.0945 18.7174 13.7134C18.3216 13.2228 17.8158 12.929 17.067 12.7547C16.5789 12.6386 16.3818 12.6519 16.2053 12.8101C16.0409 12.9583 16.0088 13.2553 16.1344 13.4477C16.2228 13.5873 16.3247 13.6374 16.6082 13.692C16.9857 13.7601 17.2466 13.8485 17.4839 13.9817C17.9877 14.267 18.2222 14.7136 18.2474 15.4365C18.2591 15.7759 18.289 15.8803 18.4098 16.0007C18.6338 16.2207 19.0324 16.1779 19.2015 15.9146C19.2635 15.8153 19.273 15.7721 19.2796 15.5416C19.2839 15.3989 19.2776 15.1865 19.2626 15.0725Z" fill="white"/>
<path fill-rule="evenodd" clip-rule="evenodd" d="M21.2354 15.6902C21.1359 14.0117 20.4667 12.6613 19.2691 11.7112C18.5943 11.1773 17.7787 10.8102 16.8847 10.6317C16.5572 10.5678 15.9542 10.5161 15.8507 10.5457C15.7531 10.5731 15.6151 10.6768 15.5535 10.7706C15.4884 10.8722 15.4738 11.0993 15.5293 11.2306C15.6189 11.4502 15.7856 11.5277 16.2524 11.5678C16.972 11.6296 17.7143 11.8776 18.2751 12.2448C18.9154 12.6629 19.4244 13.2348 19.7537 13.9068C20.0382 14.4842 20.2131 15.3163 20.2083 16.0614C20.2067 16.3309 20.2491 16.4831 20.3596 16.5944C20.5263 16.7654 20.7694 16.8028 20.9839 16.6892C21.2216 16.5666 21.2772 16.3513 21.2354 15.6902Z" fill="white"/>
<path fill-rule="evenodd" clip-rule="evenodd" d="M23.4188 22.1539C23.3853 22.058 23.3072 21.91 23.2514 21.8251C22.9 21.3044 21.0117 19.8546 20.0689 19.3804C19.5306 19.1092 19.1317 19.0187 18.8361 19.1036C18.5181 19.1914 18.3507 19.3366 17.818 19.9861C17.6032 20.2465 17.3829 20.4904 17.3243 20.5288C17.1792 20.6274 16.8947 20.7069 16.6939 20.7069C16.2281 20.7042 15.383 20.4082 14.7331 20.019C14.2282 19.7176 13.5812 19.1777 13.0846 18.6433C12.4989 18.0157 12.1001 17.4621 11.7848 16.8372C11.3776 16.0342 11.2744 15.5437 11.4446 15.1846C11.4864 15.0942 11.5422 14.9983 11.5673 14.9681C11.5924 14.9408 11.8546 14.7297 12.1446 14.4995C12.7137 14.0555 12.8057 13.9541 12.9117 13.6499C13.0456 13.2635 13.0093 12.8688 12.8029 12.4715C12.6439 12.17 12.2283 11.5123 11.9271 11.0875C11.5282 10.5284 10.5353 9.33354 10.3372 9.1718C9.98018 8.88681 9.52279 8.83745 9.01789 9.02933C8.48519 9.23214 7.48661 10.0214 7.05984 10.5723C6.67493 11.0711 6.52715 11.4246 6.50481 11.8905C6.4853 12.2741 6.51876 12.4331 6.72516 12.9237C8.34014 16.7714 10.75 19.8436 14.0609 22.2828C15.7902 23.5571 17.5837 24.5273 19.4441 25.1905C20.5291 25.5769 21.0005 25.5961 21.5556 25.2782C21.7898 25.1412 22.37 24.5574 22.6936 24.1327C23.2291 23.4256 23.4272 23.0994 23.4829 22.8391C23.522 22.661 23.4913 22.3513 23.4188 22.1539Z" fill="white"/>
<path fill-rule="evenodd" clip-rule="evenodd" d="M23.2439 16.0757C23.2081 15.1262 23.0452 14.3475 22.7055 13.4792C22.37 12.6251 22.0305 12.0678 21.3894 11.314C20.7832 10.6072 20.3124 10.2036 19.5657 9.75441C18.524 9.12853 17.2562 8.71434 15.8354 8.54015C15.3508 8.47927 15.2412 8.48362 15.0926 8.58093C14.8045 8.76527 14.8084 9.22505 15.0973 9.40663C15.193 9.46439 15.2779 9.48543 15.6654 9.5352C16.2604 9.61378 16.643 9.68785 17.0969 9.80936C18.8771 10.2868 20.246 11.2626 21.1612 12.7112C21.9271 13.9186 22.245 15.1261 22.1999 16.6683C22.1842 17.1896 22.1956 17.2814 22.2768 17.4067C22.4324 17.6401 22.8426 17.6863 23.0531 17.4926C23.184 17.3745 23.2087 17.2859 23.2345 16.8396C23.2469 16.6069 23.2495 16.2632 23.2439 16.0757Z" fill="white"/>
</symbol>

<!-- <symbol id="instagram" width="32" height="32" viewBox="0 0 32 32" fill="none" xmlns="http://www.w3.org/2000/svg">
<circle cx="15.5" cy="16.5" r="15.5" fill="url(#paint0_radial_92_102)"/>
<circle cx="15.5" cy="16.5" r="15.5" fill="url(#paint1_radial_92_102)"/>
<rect x="0.5" y="1" width="30" height="31" rx="15" fill="url(#paint2_radial_92_102)"/>
<path d="M21.8 11.275C21.8 12.062 21.1956 12.7 20.45 12.7C19.7044 12.7 19.1 12.062 19.1 11.275C19.1 10.488 19.7044 9.85 20.45 9.85C21.1956 9.85 21.8 10.488 21.8 11.275Z" fill="white"/>
<path fill-rule="evenodd" clip-rule="evenodd" d="M15.5 21.25C17.9853 21.25 20 19.1234 20 16.5C20 13.8766 17.9853 11.75 15.5 11.75C13.0147 11.75 11 13.8766 11 16.5C11 19.1234 13.0147 21.25 15.5 21.25ZM15.5 19.35C16.9912 19.35 18.2 18.074 18.2 16.5C18.2 14.926 16.9912 13.65 15.5 13.65C14.0088 13.65 12.8 14.926 12.8 16.5C12.8 18.074 14.0088 19.35 15.5 19.35Z" fill="white"/>
<path fill-rule="evenodd" clip-rule="evenodd" d="M6.5 16.12C6.5 12.9277 6.5 11.3316 7.08856 10.1123C7.60628 9.03973 8.43238 8.16774 9.44845 7.62126C10.6036 7 12.1157 7 15.14 7H15.86C18.8843 7 20.3964 7 21.5515 7.62126C22.5676 8.16774 23.3937 9.03973 23.9114 10.1123C24.5 11.3316 24.5 12.9277 24.5 16.12V16.88C24.5 20.0723 24.5 21.6684 23.9114 22.8877C23.3937 23.9603 22.5676 24.8323 21.5515 25.3787C20.3964 26 18.8843 26 15.86 26H15.14C12.1157 26 10.6036 26 9.44845 25.3787C8.43238 24.8323 7.60628 23.9603 7.08856 22.8877C6.5 21.6684 6.5 20.0723 6.5 16.88V16.12ZM15.14 8.9H15.86C17.4018 8.9 18.45 8.90148 19.2601 8.97135C20.0493 9.03941 20.4528 9.16276 20.7344 9.31418C21.4117 9.67849 21.9625 10.2598 22.3076 10.9748C22.4511 11.272 22.5679 11.698 22.6324 12.531C22.6986 13.3861 22.7 14.4925 22.7 16.12V16.88C22.7 18.5075 22.6986 19.6139 22.6324 20.469C22.5679 21.302 22.4511 21.728 22.3076 22.0252C21.9625 22.7402 21.4117 23.3215 20.7344 23.6858C20.4528 23.8372 20.0493 23.9606 19.2601 24.0287C18.45 24.0985 17.4018 24.1 15.86 24.1H15.14C13.5982 24.1 12.55 24.0985 11.7399 24.0287C10.9507 23.9606 10.5472 23.8372 10.2656 23.6858C9.58825 23.3215 9.03752 22.7402 8.69238 22.0252C8.54894 21.728 8.43207 21.302 8.36759 20.469C8.3014 19.6139 8.3 18.5075 8.3 16.88V16.12C8.3 14.4925 8.3014 13.3861 8.36759 12.531C8.43207 11.698 8.54894 11.272 8.69238 10.9748C9.03752 10.2598 9.58825 9.67849 10.2656 9.31418C10.5472 9.16276 10.9507 9.03941 11.7399 8.97135C12.55 8.90148 13.5982 8.9 15.14 8.9Z" fill="white"/>
<defs>
<radialGradient id="paint0_radial_92_102" cx="0" cy="0" r="1" gradientUnits="userSpaceOnUse" gradientTransform="translate(11.0714 24.25) rotate(-55.3758) scale(28.2538)">
<stop stop-color="#B13589"/>
<stop offset="0.79309" stop-color="#C62F94"/>
<stop offset="1" stop-color="#8A3AC8"/>
</radialGradient>
<radialGradient id="paint1_radial_92_102" cx="0" cy="0" r="1" gradientUnits="userSpaceOnUse" gradientTransform="translate(9.96429 33.1071) rotate(-65.1363) scale(25.0151)">
<stop stop-color="#E0E8B7"/>
<stop offset="0.444662" stop-color="#FB8A2E"/>
<stop offset="0.71474" stop-color="#E2425C"/>
<stop offset="1" stop-color="#E2425C" stop-opacity="0"/>
</radialGradient>
<radialGradient id="paint2_radial_92_102" cx="0" cy="0" r="1" gradientTransform="matrix(41.25 -6.08929 1.26042 9.11705 -1.10714 2.10714)" gradientUnits="userSpaceOnUse">
<stop offset="0.156701" stop-color="#406ADC"/>
<stop offset="0.467799" stop-color="#6A45BE"/>
<stop offset="1" stop-color="#6A45BE" stop-opacity="0"/>
</radialGradient>
</defs>
</symbol> -->

  <defs>
    <radialGradient id="instagram_grad0" cx="0" cy="0" r="1" gradientUnits="userSpaceOnUse" gradientTransform="translate(11.0714 24.25) rotate(-55.3758) scale(28.2538)">
      <stop stop-color="#B13589"/>
      <stop offset="0.79309" stop-color="#C62F94"/>
      <stop offset="1" stop-color="#8A3AC8"/>
    </radialGradient>
    <radialGradient id="instagram_grad1" cx="0" cy="0" r="1" gradientUnits="userSpaceOnUse" gradientTransform="translate(9.96429 33.1071) rotate(-65.1363) scale(25.0151)">
      <stop stop-color="#E0E8B7"/>
      <stop offset="0.444662" stop-color="#FB8A2E"/>
      <stop offset="0.71474" stop-color="#E2425C"/>
      <stop offset="1" stop-color="#E2425C" stop-opacity="0"/>
    </radialGradient>
    <radialGradient id="instagram_grad2" cx="0" cy="0" r="1" gradientUnits="userSpaceOnUse" gradientTransform="matrix(41.25 -6.08929 1.26042 9.11705 -1.10714 2.10714)">
      <stop offset="0.156701" stop-color="#406ADC"/>
      <stop offset="0.467799" stop-color="#6A45BE"/>
      <stop offset="1" stop-color="#6A45BE" stop-opacity="0"/>
    </radialGradient>
  </defs>

  <symbol id="instagram" width="32" height="32" viewBox="0 0 32 32">
    <circle cx="15.5" cy="16.5" r="15.5" fill="url(#instagram_grad0)"/>
    <circle cx="15.5" cy="16.5" r="15.5" fill="url(#instagram_grad1)"/>
    <rect x="0.5" y="1" width="30" height="31" rx="15" fill="url(#instagram_grad2)"/>
    <path d="M21.8 11.275C21.8 12.062 21.1956 12.7 20.45 12.7C19.7044 12.7 19.1 12.062 19.1 11.275C19.1 10.488 19.7044 9.85 20.45 9.85C21.1956 9.85 21.8 10.488 21.8 11.275Z" fill="white"/>
    <path fill-rule="evenodd" clip-rule="evenodd" d="M15.5 21.25C17.9853 21.25 20 19.1234 20 16.5C20 13.8766 17.9853 11.75 15.5 11.75C13.0147 11.75 11 13.8766 11 16.5C11 19.1234 13.0147 21.25 15.5 21.25ZM15.5 19.35C16.9912 19.35 18.2 18.074 18.2 16.5C18.2 14.926 16.9912 13.65 15.5 13.65C14.0088 13.65 12.8 14.926 12.8 16.5C12.8 18.074 14.0088 19.35 15.5 19.35Z" fill="white"/>
    <path fill-rule="evenodd" clip-rule="evenodd" d="M6.5 16.12C6.5 12.9277 6.5 11.3316 7.08856 10.1123C7.60628 9.03973 8.43238 8.16774 9.44845 7.62126C10.6036 7 12.1157 7 15.14 7H15.86C18.8843 7 20.3964 7 21.5515 7.62126C22.5676 8.16774 23.3937 9.03973 23.9114 10.1123C24.5 11.3316 24.5 12.9277 24.5 16.12V16.88C24.5 20.0723 24.5 21.6684 23.9114 22.8877C23.3937 23.9603 22.5676 24.8323 21.5515 25.3787C20.3964 26 18.8843 26 15.86 26H15.14C12.1157 26 10.6036 26 9.44845 25.3787C8.43238 24.8323 7.60628 23.9603 7.08856 22.8877C6.5 21.6684 6.5 20.0723 6.5 16.88V16.12Z" fill="white"/>
  </symbol>

<symbol id="telegram" width="32" height="32" viewBox="0 0 32 32" fill="none" xmlns="http://www.w3.org/2000/svg">
<circle cx="15.5" cy="16.5" r="15.5" fill="url(#paint0_linear_92_95)"/>
<path d="M23.4857 10.7088C23.6182 9.90332 22.8045 9.26755 22.0436 9.582L6.88762 15.8448C6.34193 16.0703 6.38185 16.8483 6.94781 17.0179L10.0733 17.9547C10.6699 18.1335 11.3158 18.041 11.8367 17.7023L18.8834 13.1203C19.0959 12.9821 19.3275 13.2665 19.146 13.4426L14.0736 18.3646C13.5816 18.8421 13.6792 19.6512 14.2711 20.0005L19.9501 23.3523C20.5871 23.7282 21.4065 23.3506 21.5257 22.6261L23.4857 10.7088Z" fill="white"/>
<defs>
<linearGradient id="paint0_linear_92_95" x1="15.5" y1="1" x2="15.5" y2="32" gradientUnits="userSpaceOnUse">
<stop stop-color="#37BBFE"/>
<stop offset="1" stop-color="#007DBB"/>
</linearGradient>
</defs>
</symbol>
<symbol id="whatsup" width="32" height="32" viewBox="0 0 32 32" fill="none" xmlns="http://www.w3.org/2000/svg">
<circle cx="15.5" cy="16.5" r="15.5" fill="url(#paint0_linear_92_113)"/>
<path fill-rule="evenodd" clip-rule="evenodd" d="M16.0398 25.3367H16.0359C14.4526 25.3362 12.8968 24.9408 11.515 24.1908L6.5 25.5L7.84211 20.6213C7.01423 19.1934 6.57861 17.5738 6.57932 15.9144C6.58139 10.7233 10.8253 6.5 16.0397 6.5C18.5704 6.50109 20.9457 7.48158 22.7318 9.26121C24.5179 11.0407 25.501 13.4062 25.5 15.9218C25.4979 21.1117 21.2557 25.3346 16.0398 25.3367ZM11.7472 22.4864L12.0343 22.656C13.2416 23.369 14.6255 23.7462 16.0364 23.7468H16.0396C20.3735 23.7468 23.9008 20.2362 23.9025 15.9214C23.9033 13.8304 23.0862 11.8643 21.6017 10.3852C20.1171 8.90601 18.1429 8.09102 16.0427 8.09029C11.7055 8.09029 8.17812 11.6005 8.1764 15.915C8.17579 17.3937 8.5915 18.8337 9.3786 20.0796L9.56556 20.3756L8.77122 23.2633L11.7472 22.4864ZM20.806 18.1606C20.7469 18.0625 20.5894 18.0036 20.353 17.8858C20.1166 17.7681 18.9545 17.199 18.7378 17.1205C18.5211 17.042 18.3635 17.0028 18.2059 17.2382C18.0484 17.4737 17.5954 18.0036 17.4575 18.1606C17.3196 18.3176 17.1817 18.3373 16.9454 18.2195C16.709 18.1018 15.9473 17.8534 15.0444 17.0519C14.3417 16.4281 13.8673 15.6577 13.7294 15.4222C13.5915 15.1867 13.7147 15.0594 13.8331 14.9421C13.9394 14.8367 14.0695 14.6673 14.1877 14.5299C14.3058 14.3926 14.3452 14.2944 14.424 14.1375C14.5028 13.9805 14.4634 13.8431 14.4043 13.7254C14.3452 13.6076 13.8725 12.4497 13.6755 11.9786C13.4836 11.5199 13.2888 11.582 13.1437 11.5748C13.0059 11.5679 12.8482 11.5665 12.6906 11.5665C12.5331 11.5665 12.2769 11.6253 12.0603 11.8609C11.8436 12.0964 11.233 12.6655 11.233 13.8234C11.233 14.9813 12.08 16.1 12.1982 16.2569C12.3164 16.414 13.865 18.7901 16.2362 19.8091C16.8002 20.0515 17.2405 20.1963 17.5838 20.3047C18.15 20.4838 18.6654 20.4585 19.0726 20.3979C19.5268 20.3304 20.4711 19.8288 20.6682 19.2793C20.8651 18.7297 20.8651 18.2587 20.806 18.1606Z" fill="#FDFDFD"/>
<defs>
<linearGradient id="paint0_linear_92_113" x1="29.0625" y1="4.875" x2="-7.50646e-07" y2="32" gradientUnits="userSpaceOnUse">
<stop stop-color="#5BD066"/>
<stop offset="1" stop-color="#27B43E"/>
</linearGradient>
</defs>
</symbol>
</svg>