<svg width="32" height="32" viewBox="0 0 32 32" fill="none" xmlns="http://www.w3.org/2000/svg">
<circle cx="15.5" cy="16.5" r="15.5" fill="url(#paint0_linear_92_113)"/>
<path fill-rule="evenodd" clip-rule="evenodd" d="M16.0398 25.3367H16.0359C14.4526 25.3362 12.8968 24.9408 11.515 24.1908L6.5 25.5L7.84211 20.6213C7.01423 19.1934 6.57861 17.5738 6.57932 15.9144C6.58139 10.7233 10.8253 6.5 16.0397 6.5C18.5704 6.50109 20.9457 7.48158 22.7318 9.26121C24.5179 11.0407 25.501 13.4062 25.5 15.9218C25.4979 21.1117 21.2557 25.3346 16.0398 25.3367ZM11.7472 22.4864L12.0343 22.656C13.2416 23.369 14.6255 23.7462 16.0364 23.7468H16.0396C20.3735 23.7468 23.9008 20.2362 23.9025 15.9214C23.9033 13.8304 23.0862 11.8643 21.6017 10.3852C20.1171 8.90601 18.1429 8.09102 16.0427 8.09029C11.7055 8.09029 8.17812 11.6005 8.1764 15.915C8.17579 17.3937 8.5915 18.8337 9.3786 20.0796L9.56556 20.3756L8.77122 23.2633L11.7472 22.4864ZM20.806 18.1606C20.7469 18.0625 20.5894 18.0036 20.353 17.8858C20.1166 17.7681 18.9545 17.199 18.7378 17.1205C18.5211 17.042 18.3635 17.0028 18.2059 17.2382C18.0484 17.4737 17.5954 18.0036 17.4575 18.1606C17.3196 18.3176 17.1817 18.3373 16.9454 18.2195C16.709 18.1018 15.9473 17.8534 15.0444 17.0519C14.3417 16.4281 13.8673 15.6577 13.7294 15.4222C13.5915 15.1867 13.7147 15.0594 13.8331 14.9421C13.9394 14.8367 14.0695 14.6673 14.1877 14.5299C14.3058 14.3926 14.3452 14.2944 14.424 14.1375C14.5028 13.9805 14.4634 13.8431 14.4043 13.7254C14.3452 13.6076 13.8725 12.4497 13.6755 11.9786C13.4836 11.5199 13.2888 11.582 13.1437 11.5748C13.0059 11.5679 12.8482 11.5665 12.6906 11.5665C12.5331 11.5665 12.2769 11.6253 12.0603 11.8609C11.8436 12.0964 11.233 12.6655 11.233 13.8234C11.233 14.9813 12.08 16.1 12.1982 16.2569C12.3164 16.414 13.865 18.7901 16.2362 19.8091C16.8002 20.0515 17.2405 20.1963 17.5838 20.3047C18.15 20.4838 18.6654 20.4585 19.0726 20.3979C19.5268 20.3304 20.4711 19.8288 20.6682 19.2793C20.8651 18.7297 20.8651 18.2587 20.806 18.1606Z" fill="#FDFDFD"/>
<defs>
<linearGradient id="paint0_linear_92_113" x1="29.0625" y1="4.875" x2="-7.50646e-07" y2="32" gradientUnits="userSpaceOnUse">
<stop stop-color="#5BD066"/>
<stop offset="1" stop-color="#27B43E"/>
</linearGradient>
</defs>
</svg>
