<svg width="32" height="32" viewBox="0 0 32 32" fill="none" xmlns="http://www.w3.org/2000/svg">
<circle cx="15.5" cy="16.5" r="15.5" fill="#9179EE"/>
<path fill-rule="evenodd" clip-rule="evenodd" d="M19.2626 15.0725C19.1938 14.5246 19.0222 14.0945 18.7174 13.7134C18.3216 13.2228 17.8158 12.929 17.067 12.7547C16.5789 12.6386 16.3818 12.6519 16.2053 12.8101C16.0409 12.9583 16.0088 13.2553 16.1344 13.4477C16.2228 13.5873 16.3247 13.6374 16.6082 13.692C16.9857 13.7601 17.2466 13.8485 17.4839 13.9817C17.9877 14.267 18.2222 14.7136 18.2474 15.4365C18.2591 15.7759 18.289 15.8803 18.4098 16.0007C18.6338 16.2207 19.0324 16.1779 19.2015 15.9146C19.2635 15.8153 19.273 15.7721 19.2796 15.5416C19.2839 15.3989 19.2776 15.1865 19.2626 15.0725Z" fill="white"/>
<path fill-rule="evenodd" clip-rule="evenodd" d="M21.2354 15.6902C21.1359 14.0117 20.4667 12.6613 19.2691 11.7112C18.5943 11.1773 17.7787 10.8102 16.8847 10.6317C16.5572 10.5678 15.9542 10.5161 15.8507 10.5457C15.7531 10.5731 15.6151 10.6768 15.5535 10.7706C15.4884 10.8722 15.4738 11.0993 15.5293 11.2306C15.6189 11.4502 15.7856 11.5277 16.2524 11.5678C16.972 11.6296 17.7143 11.8776 18.2751 12.2448C18.9154 12.6629 19.4244 13.2348 19.7537 13.9068C20.0382 14.4842 20.2131 15.3163 20.2083 16.0614C20.2067 16.3309 20.2491 16.4831 20.3596 16.5944C20.5263 16.7654 20.7694 16.8028 20.9839 16.6892C21.2216 16.5666 21.2772 16.3513 21.2354 15.6902Z" fill="white"/>
<path fill-rule="evenodd" clip-rule="evenodd" d="M23.4188 22.1539C23.3853 22.058 23.3072 21.91 23.2514 21.8251C22.9 21.3044 21.0117 19.8546 20.0689 19.3804C19.5306 19.1092 19.1317 19.0187 18.8361 19.1036C18.5181 19.1914 18.3507 19.3366 17.818 19.9861C17.6032 20.2465 17.3829 20.4904 17.3243 20.5288C17.1792 20.6274 16.8947 20.7069 16.6939 20.7069C16.2281 20.7042 15.383 20.4082 14.7331 20.019C14.2282 19.7176 13.5812 19.1777 13.0846 18.6433C12.4989 18.0157 12.1001 17.4621 11.7848 16.8372C11.3776 16.0342 11.2744 15.5437 11.4446 15.1846C11.4864 15.0942 11.5422 14.9983 11.5673 14.9681C11.5924 14.9408 11.8546 14.7297 12.1446 14.4995C12.7137 14.0555 12.8057 13.9541 12.9117 13.6499C13.0456 13.2635 13.0093 12.8688 12.8029 12.4715C12.6439 12.17 12.2283 11.5123 11.9271 11.0875C11.5282 10.5284 10.5353 9.33354 10.3372 9.1718C9.98018 8.88681 9.52279 8.83745 9.01789 9.02933C8.48519 9.23214 7.48661 10.0214 7.05984 10.5723C6.67493 11.0711 6.52715 11.4246 6.50481 11.8905C6.4853 12.2741 6.51876 12.4331 6.72516 12.9237C8.34014 16.7714 10.75 19.8436 14.0609 22.2828C15.7902 23.5571 17.5837 24.5273 19.4441 25.1905C20.5291 25.5769 21.0005 25.5961 21.5556 25.2782C21.7898 25.1412 22.37 24.5574 22.6936 24.1327C23.2291 23.4256 23.4272 23.0994 23.4829 22.8391C23.522 22.661 23.4913 22.3513 23.4188 22.1539Z" fill="white"/>
<path fill-rule="evenodd" clip-rule="evenodd" d="M23.2439 16.0757C23.2081 15.1262 23.0452 14.3475 22.7055 13.4792C22.37 12.6251 22.0305 12.0678 21.3894 11.314C20.7832 10.6072 20.3124 10.2036 19.5657 9.75441C18.524 9.12853 17.2562 8.71434 15.8354 8.54015C15.3508 8.47927 15.2412 8.48362 15.0926 8.58093C14.8045 8.76527 14.8084 9.22505 15.0973 9.40663C15.193 9.46439 15.2779 9.48543 15.6654 9.5352C16.2604 9.61378 16.643 9.68785 17.0969 9.80936C18.8771 10.2868 20.246 11.2626 21.1612 12.7112C21.9271 13.9186 22.245 15.1261 22.1999 16.6683C22.1842 17.1896 22.1956 17.2814 22.2768 17.4067C22.4324 17.6401 22.8426 17.6863 23.0531 17.4926C23.184 17.3745 23.2087 17.2859 23.2345 16.8396C23.2469 16.6069 23.2495 16.2632 23.2439 16.0757Z" fill="white"/>
</svg>
